# xmcd
# Copyright (C) 1995-1998 Ti Kan
#
# Track frame offsets:
#       150
#       76497
#       152286
#       228967
#
# Disc length: 3959 seconds
#
# Revision: 0
# Processed by: cddbd v1.5.2PL0 Copyright (c) Steve Scherf et al.
# Submitted via: CD-Import v1.0
#
DISCID=1c0f7504
DTITLE=Mixedfilter - 
DYEAR=1900
DGENRE=
TTITLE0=Mf Robnik4
TTITLE1=Mf Robnik5
TTITLE2=Mf Robnik6
TTITLE3=Mf Robnik7
EXTD=
EXTT0=
EXTT1=
EXTT2=
EXTT3=
PLAYORDER=
